<?xml version="1.0" encoding="iso-8859-1"?>
<svg version="1.1" id="Capa_1" xmlns="http://www.w3.org/2000/svg" xmlns:xlink="http://www.w3.org/1999/xlink" x="0px" y="0px"
	 viewBox="0 0 332.615 332.615" style="enable-background:new 0 0 332.615 332.615;" xml:space="preserve">
<g>
	<g>
		<path style="fill:#FF7F00;" d="M146.61,309.363l23.252,23.252l25.324-25.324c43.866-11.961,76.8-50.393,80.449-97.12h0.022
			c0,0,0.044-0.49,0.082-1.392c0.158-2.404,0.267-4.814,0.267-7.256c0-6.75-0.642-12.755-1.806-18.166
			C267.798,138.925,242.827,45.035,105.273,0H70.458c0,0,114.987,64.757,88.94,109.885c-27.092,46.945-66.694-1.479-64.176-11.433
			c0,0-31.916,29.474-38.612,96.168l0.228,0.016c-0.158,2.274-0.228,4.569-0.228,6.897
			C56.604,255.375,95.439,300.068,146.61,309.363z"/>
	</g>
</g>
<g>
</g>
<g>
</g>
<g>
</g>
<g>
</g>
<g>
</g>
<g>
</g>
<g>
</g>
<g>
</g>
<g>
</g>
<g>
</g>
<g>
</g>
<g>
</g>
<g>
</g>
<g>
</g>
<g>
</g>
</svg>
